<svg xmlns="http://www.w3.org/2000/svg" viewBox="0 0 720 420">
  <rect width="720" height="420" fill="#131313"/>

  <!-- Layer 1: Web Dashboard -->
  <rect x="240" y="20" width="240" height="50" fill="#1b1b1b" stroke="#00FF41" stroke-width="1"/>
  <text x="360" y="42" text-anchor="middle" font-family="monospace" font-size="13" font-weight="700" fill="#00FF41">Web Dashboard</text>
  <text x="360" y="58" text-anchor="middle" font-family="monospace" font-size="10" fill="#84967e">(human oversight)</text>

  <!-- Line down from dashboard -->
  <line x1="360" y1="70" x2="360" y2="110" stroke="#84967e" stroke-width="1"/>

  <!-- Layer 2: Agents -->
  <rect x="60" y="110" width="600" height="90" fill="#1f1f1f" stroke="none"/>
  <text x="360" y="132" text-anchor="middle" font-family="monospace" font-size="10" fill="#84967e">AGENT COORDINATION</text>

  <!-- Agent boxes -->
  <rect x="80" y="145" width="120" height="28" fill="#2a2a2a"/>
  <rect x="80" y="145" width="2" height="28" fill="#00FF41"/>
  <text x="92" y="163" font-family="monospace" font-size="10" fill="#00FF41">CreditAgent</text>

  <rect x="220" y="145" width="120" height="28" fill="#2a2a2a"/>
  <rect x="220" y="145" width="2" height="28" fill="#00FF41"/>
  <text x="232" y="163" font-family="monospace" font-size="10" fill="#00FF41">LendingAgent</text>

  <rect x="360" y="145" width="130" height="28" fill="#2a2a2a"/>
  <rect x="360" y="145" width="2" height="28" fill="#00FF41"/>
  <text x="372" y="163" font-family="monospace" font-size="10" fill="#00FF41">RevenueWatcher</text>

  <rect x="510" y="145" width="130" height="28" fill="#2a2a2a"/>
  <rect x="510" y="145" width="2" height="28" fill="#00FF41"/>
  <text x="522" y="163" font-family="monospace" font-size="10" fill="#00FF41">CollectionAgent</text>

  <rect x="80" y="178" width="130" height="28" fill="#2a2a2a"/>
  <rect x="80" y="178" width="2" height="28" fill="#00FF41"/>
  <text x="92" y="196" font-family="monospace" font-size="10" fill="#00FF41">EscalationAgent</text>

  <!-- Line down from agents -->
  <line x1="360" y1="210" x2="360" y2="250" stroke="#84967e" stroke-width="1"/>

  <!-- Layer 3: Smart Contracts -->
  <rect x="60" y="250" width="600" height="150" fill="#1b1b1b" stroke="none"/>
  <text x="360" y="272" text-anchor="middle" font-family="monospace" font-size="10" fill="#84967e">SMART CONTRACTS</text>

  <!-- Contract boxes -->
  <rect x="80" y="290" width="110" height="44" fill="#2a2a2a"/>
  <text x="135" y="308" text-anchor="middle" font-family="monospace" font-size="11" font-weight="700" fill="#e2e2e2">Identity</text>
  <text x="135" y="324" text-anchor="middle" font-family="monospace" font-size="9" fill="#84967e">ERC-8004</text>

  <rect x="205" y="290" width="110" height="44" fill="#2a2a2a"/>
  <text x="260" y="308" text-anchor="middle" font-family="monospace" font-size="11" font-weight="700" fill="#e2e2e2">CreditScore</text>
  <text x="260" y="324" text-anchor="middle" font-family="monospace" font-size="9" fill="#84967e">dual-layer</text>

  <rect x="330" y="290" width="110" height="44" fill="#2a2a2a"/>
  <text x="385" y="308" text-anchor="middle" font-family="monospace" font-size="11" font-weight="700" fill="#e2e2e2">Guardrails</text>
  <text x="385" y="324" text-anchor="middle" font-family="monospace" font-size="9" fill="#84967e">safety rules</text>

  <rect x="455" y="290" width="110" height="44" fill="#2a2a2a"/>
  <text x="510" y="308" text-anchor="middle" font-family="monospace" font-size="11" font-weight="700" fill="#e2e2e2">LendingPool</text>
  <text x="510" y="324" text-anchor="middle" font-family="monospace" font-size="9" fill="#84967e">Jump Rate</text>

  <rect x="580" y="290" width="110" height="44" fill="#2a2a2a"/>
  <text x="635" y="308" text-anchor="middle" font-family="monospace" font-size="11" font-weight="700" fill="#e2e2e2">Revenue</text>
  <text x="635" y="324" text-anchor="middle" font-family="monospace" font-size="9" fill="#84967e">Escrow</text>

  <!-- Connecting lines from center to each contract -->
  <line x1="360" y1="250" x2="135" y2="290" stroke="#84967e" stroke-width="1"/>
  <line x1="360" y1="250" x2="260" y2="290" stroke="#84967e" stroke-width="1"/>
  <line x1="360" y1="250" x2="385" y2="290" stroke="#84967e" stroke-width="1"/>
  <line x1="360" y1="250" x2="510" y2="290" stroke="#84967e" stroke-width="1"/>
  <line x1="360" y1="250" x2="635" y2="290" stroke="#84967e" stroke-width="1"/>

  <!-- Footer -->
  <text x="360" y="400" text-anchor="middle" font-family="monospace" font-size="10" fill="#84967e">>_ PARALLEL_UNIVERSE</text>
</svg>
