<svg xmlns="http://www.w3.org/2000/svg" viewBox="0 0 720 420">
  <rect width="720" height="420" fill="#131313"/>

  <!-- Layer 1: Web Dashboard -->
  <rect x="230" y="20" width="260" height="50" fill="#1b1b1b" stroke="#00FF41" stroke-width="1"/>
  <text x="360" y="42" text-anchor="middle" font-family="monospace" font-size="13" font-weight="700" fill="#00FF41">Web Dashboard</text>
  <text x="360" y="58" text-anchor="middle" font-family="monospace" font-size="10" fill="#84967e">(human oversight)</text>

  <!-- Line down from dashboard -->
  <line x1="360" y1="70" x2="360" y2="105" stroke="#84967e" stroke-width="1"/>

  <!-- Layer 2: Agents background -->
  <rect x="30" y="105" width="660" height="110" fill="#1f1f1f"/>
  <text x="360" y="125" text-anchor="middle" font-family="monospace" font-size="10" fill="#84967e">AGENT COORDINATION</text>

  <!-- Row 1: 3 agents -->
  <rect x="50" y="138" width="180" height="26" fill="#2a2a2a"/>
  <rect x="50" y="138" width="2" height="26" fill="#00FF41"/>
  <text x="62" y="155" font-family="monospace" font-size="10" fill="#00FF41">CreditAgent</text>

  <rect x="270" y="138" width="180" height="26" fill="#2a2a2a"/>
  <rect x="270" y="138" width="2" height="26" fill="#00FF41"/>
  <text x="282" y="155" font-family="monospace" font-size="10" fill="#00FF41">LendingAgent</text>

  <rect x="490" y="138" width="180" height="26" fill="#2a2a2a"/>
  <rect x="490" y="138" width="2" height="26" fill="#00FF41"/>
  <text x="502" y="155" font-family="monospace" font-size="10" fill="#00FF41">RevenueWatcher</text>

  <!-- Row 2: 2 agents centered -->
  <rect x="160" y="174" width="180" height="26" fill="#2a2a2a"/>
  <rect x="160" y="174" width="2" height="26" fill="#00FF41"/>
  <text x="172" y="191" font-family="monospace" font-size="10" fill="#00FF41">CollectionAgent</text>

  <rect x="380" y="174" width="180" height="26" fill="#2a2a2a"/>
  <rect x="380" y="174" width="2" height="26" fill="#00FF41"/>
  <text x="392" y="191" font-family="monospace" font-size="10" fill="#00FF41">EscalationAgent</text>

  <!-- Line down from agents -->
  <line x1="360" y1="215" x2="360" y2="250" stroke="#84967e" stroke-width="1"/>

  <!-- Layer 3: Smart Contracts background -->
  <rect x="30" y="250" width="660" height="130" fill="#1b1b1b"/>
  <text x="360" y="270" text-anchor="middle" font-family="monospace" font-size="10" fill="#84967e">SMART CONTRACTS</text>

  <!-- 5 connecting lines -->
  <line x1="360" y1="250" x2="96" y2="290" stroke="#84967e" stroke-width="1"/>
  <line x1="360" y1="250" x2="228" y2="290" stroke="#84967e" stroke-width="1"/>
  <line x1="360" y1="250" x2="360" y2="290" stroke="#84967e" stroke-width="1"/>
  <line x1="360" y1="250" x2="492" y2="290" stroke="#84967e" stroke-width="1"/>
  <line x1="360" y1="250" x2="624" y2="290" stroke="#84967e" stroke-width="1"/>

  <!-- 5 contract boxes evenly spaced within the background -->
  <rect x="46" y="290" width="100" height="44" fill="#2a2a2a"/>
  <text x="96" y="308" text-anchor="middle" font-family="monospace" font-size="11" font-weight="700" fill="#e2e2e2">Identity</text>
  <text x="96" y="322" text-anchor="middle" font-family="monospace" font-size="9" fill="#84967e">ERC-8004</text>

  <rect x="178" y="290" width="100" height="44" fill="#2a2a2a"/>
  <text x="228" y="308" text-anchor="middle" font-family="monospace" font-size="11" font-weight="700" fill="#e2e2e2">CreditScore</text>
  <text x="228" y="322" text-anchor="middle" font-family="monospace" font-size="9" fill="#84967e">dual-layer</text>

  <rect x="310" y="290" width="100" height="44" fill="#2a2a2a"/>
  <text x="360" y="308" text-anchor="middle" font-family="monospace" font-size="11" font-weight="700" fill="#e2e2e2">Guardrails</text>
  <text x="360" y="322" text-anchor="middle" font-family="monospace" font-size="9" fill="#84967e">safety</text>

  <rect x="442" y="290" width="100" height="44" fill="#2a2a2a"/>
  <text x="492" y="308" text-anchor="middle" font-family="monospace" font-size="11" font-weight="700" fill="#e2e2e2">LendingPool</text>
  <text x="492" y="322" text-anchor="middle" font-family="monospace" font-size="9" fill="#84967e">Jump Rate</text>

  <rect x="574" y="290" width="100" height="44" fill="#2a2a2a"/>
  <text x="624" y="308" text-anchor="middle" font-family="monospace" font-size="11" font-weight="700" fill="#e2e2e2">Revenue</text>
  <text x="624" y="322" text-anchor="middle" font-family="monospace" font-size="9" fill="#84967e">Escrow</text>

  <!-- Footer -->
  <text x="360" y="405" text-anchor="middle" font-family="monospace" font-size="10" fill="#84967e">&gt;_ PARALLEL_UNIVERSE</text>
</svg>
