<svg xmlns="http://www.w3.org/2000/svg" viewBox="0 0 720 400">
  <rect width="720" height="400" fill="#131313"/>

  <!-- Layer 1: Web Dashboard -->
  <rect x="240" y="20" width="240" height="50" fill="#1b1b1b" stroke="#00FF41" stroke-width="1"/>
  <text x="360" y="42" text-anchor="middle" font-family="monospace" font-size="13" font-weight="700" fill="#00FF41">Web Dashboard</text>
  <text x="360" y="58" text-anchor="middle" font-family="monospace" font-size="10" fill="#84967e">(human oversight)</text>

  <!-- Line down from dashboard -->
  <line x1="360" y1="70" x2="360" y2="100" stroke="#84967e" stroke-width="1"/>

  <!-- Layer 2: Agents -->
  <rect x="40" y="100" width="640" height="100" fill="#1f1f1f"/>
  <text x="360" y="120" text-anchor="middle" font-family="monospace" font-size="10" fill="#84967e">AGENT COORDINATION</text>

  <!-- 5 agent boxes — 3 top row, 2 bottom row, all centered -->
  <rect x="55" y="132" width="180" height="26" fill="#2a2a2a"/>
  <rect x="55" y="132" width="2" height="26" fill="#00FF41"/>
  <text x="67" y="149" font-family="monospace" font-size="10" fill="#00FF41">CreditAgent</text>

  <rect x="270" y="132" width="180" height="26" fill="#2a2a2a"/>
  <rect x="270" y="132" width="2" height="26" fill="#00FF41"/>
  <text x="282" y="149" font-family="monospace" font-size="10" fill="#00FF41">LendingAgent</text>

  <rect x="485" y="132" width="180" height="26" fill="#2a2a2a"/>
  <rect x="485" y="132" width="2" height="26" fill="#00FF41"/>
  <text x="497" y="149" font-family="monospace" font-size="10" fill="#00FF41">RevenueWatcher</text>

  <rect x="162" y="166" width="180" height="26" fill="#2a2a2a"/>
  <rect x="162" y="166" width="2" height="26" fill="#00FF41"/>
  <text x="174" y="183" font-family="monospace" font-size="10" fill="#00FF41">CollectionAgent</text>

  <rect x="378" y="166" width="180" height="26" fill="#2a2a2a"/>
  <rect x="378" y="166" width="2" height="26" fill="#00FF41"/>
  <text x="390" y="183" font-family="monospace" font-size="10" fill="#00FF41">EscalationAgent</text>

  <!-- Line down from agents -->
  <line x1="360" y1="200" x2="360" y2="240" stroke="#84967e" stroke-width="1"/>

  <!-- Layer 3: Smart Contracts -->
  <rect x="40" y="240" width="640" height="130" fill="#1b1b1b"/>
  <text x="360" y="260" text-anchor="middle" font-family="monospace" font-size="10" fill="#84967e">SMART CONTRACTS</text>

  <!-- 5 connecting lines -->
  <line x1="360" y1="240" x2="107" y2="280" stroke="#84967e" stroke-width="1"/>
  <line x1="360" y1="240" x2="237" y2="280" stroke="#84967e" stroke-width="1"/>
  <line x1="360" y1="240" x2="360" y2="280" stroke="#84967e" stroke-width="1"/>
  <line x1="360" y1="240" x2="483" y2="280" stroke="#84967e" stroke-width="1"/>
  <line x1="360" y1="240" x2="613" y2="280" stroke="#84967e" stroke-width="1"/>

  <!-- 5 contract boxes — evenly spaced -->
  <rect x="52" y="280" width="110" height="44" fill="#2a2a2a"/>
  <text x="107" y="298" text-anchor="middle" font-family="monospace" font-size="11" font-weight="700" fill="#e2e2e2">Identity</text>
  <text x="107" y="314" text-anchor="middle" font-family="monospace" font-size="9" fill="#84967e">ERC-8004</text>

  <rect x="182" y="280" width="110" height="44" fill="#2a2a2a"/>
  <text x="237" y="298" text-anchor="middle" font-family="monospace" font-size="11" font-weight="700" fill="#e2e2e2">CreditScore</text>
  <text x="237" y="314" text-anchor="middle" font-family="monospace" font-size="9" fill="#84967e">dual-layer</text>

  <rect x="305" y="280" width="110" height="44" fill="#2a2a2a"/>
  <text x="360" y="298" text-anchor="middle" font-family="monospace" font-size="11" font-weight="700" fill="#e2e2e2">Guardrails</text>
  <text x="360" y="314" text-anchor="middle" font-family="monospace" font-size="9" fill="#84967e">safety rules</text>

  <rect x="428" y="280" width="110" height="44" fill="#2a2a2a"/>
  <text x="483" y="298" text-anchor="middle" font-family="monospace" font-size="11" font-weight="700" fill="#e2e2e2">LendingPool</text>
  <text x="483" y="314" text-anchor="middle" font-family="monospace" font-size="9" fill="#84967e">Jump Rate</text>

  <rect x="558" y="280" width="110" height="44" fill="#2a2a2a"/>
  <text x="613" y="298" text-anchor="middle" font-family="monospace" font-size="11" font-weight="700" fill="#e2e2e2">Revenue</text>
  <text x="613" y="314" text-anchor="middle" font-family="monospace" font-size="9" fill="#84967e">Escrow</text>

  <!-- Footer -->
  <text x="360" y="385" text-anchor="middle" font-family="monospace" font-size="10" fill="#84967e">&gt;_ PARALLEL_UNIVERSE</text>
</svg>
